HIERARCHY
ROOT Hips
{
	OFFSET 0.000000 83.214638 0.000000
	CHANNELS 6 Xposition Yposition Zposition Xrotation Yrotation Zrotation
	JOINT Pelvis
	{
		OFFSET 0.000000 0.000000 0.000000
		CHANNELS 3 Xrotation Yrotation Zrotation
		JOINT LeftUpLeg
		{
			OFFSET 8.479700 -4.795502 -0.379100
			CHANNELS 3 Xrotation Yrotation Zrotation
			JOINT LeftLeg
			{
				OFFSET 0.024144 -32.555107 0.112900
				CHANNELS 3 Xrotation Yrotation Zrotation
				JOINT LeftFoot
				{
					OFFSET -0.024144 -32.638630 -3.012600
					CHANNELS 3 Xrotation Yrotation Zrotation
					JOINT LeftToeBase
					{
						OFFSET 0.970200 -13.225400 11.864200
						CHANNELS 3 Xrotation Yrotation Zrotation
						End Site
						{
							OFFSET 0.000000 12.319262 0.000000
						}
					}
					JOINT LFootTongue
					{
						OFFSET 1.142400 -1.059800 6.665200
						CHANNELS 3 Xrotation Yrotation Zrotation
						End Site
						{
							OFFSET 0.000000 12.319262 0.000000
						}
					}
				}
				JOINT LeftPantLeg
				{
					OFFSET 0.918482 -16.533964 -2.284700
					CHANNELS 3 Xrotation Yrotation Zrotation
					End Site
					{
						OFFSET 0.350399 24.744368 0.000000
					}
				}
			}
		}
		JOINT RightUpLeg
		{
			OFFSET -8.479700 -4.795502 -0.379100
			CHANNELS 3 Xrotation Yrotation Zrotation
			JOINT RightLeg
			{
				OFFSET -0.023144 -32.555092 0.112900
				CHANNELS 3 Xrotation Yrotation Zrotation
				JOINT RightFoot
				{
					OFFSET 0.023144 -32.638641 -3.012700
					CHANNELS 3 Xrotation Yrotation Zrotation
					JOINT RightToeBase
					{
						OFFSET -0.970200 -13.225400 11.864200
						CHANNELS 3 Xrotation Yrotation Zrotation
						End Site
						{
							OFFSET 0.000000 12.319244 0.000000
						}
					}
					JOINT RFootTongue
					{
						OFFSET -1.142200 -1.059800 6.665200
						CHANNELS 3 Xrotation Yrotation Zrotation
						End Site
						{
							OFFSET 0.000000 12.319243 0.000000
						}
					}
				}
				JOINT RightPantLeg
				{
					OFFSET -0.919482 -16.533978 -2.284800
					CHANNELS 3 Xrotation Yrotation Zrotation
					End Site
					{
						OFFSET -0.350400 24.744419 0.000000
					}
				}
			}
		}
	}
	JOINT Spine
	{
		OFFSET 0.000000 7.722000 1.166200
		CHANNELS 3 Xrotation Yrotation Zrotation
		JOINT Spine1
		{
			OFFSET 0.000000 12.024101 0.248800
			CHANNELS 3 Xrotation Yrotation Zrotation
			JOINT Spine2
			{
				OFFSET 0.000000 11.502998 -0.491200
				CHANNELS 3 Xrotation Yrotation Zrotation
				JOINT Neck
				{
					OFFSET 0.000000 18.430702 -3.123100
					CHANNELS 3 Xrotation Yrotation Zrotation
					JOINT Head
					{
						OFFSET 0.000000 9.051102 1.034000
						CHANNELS 3 Xrotation Yrotation Zrotation
						JOINT HairB
						{
							OFFSET 0.208400 24.786102 24.822300
							CHANNELS 3 Xrotation Yrotation Zrotation
							End Site
							{
								OFFSET 0.000000 32.263779 0.000000
							}
						}
						JOINT HairA
						{
							OFFSET -7.081100 24.428299 23.196600
							CHANNELS 3 Xrotation Yrotation Zrotation
							End Site
							{
								OFFSET 0.000000 32.263779 0.000000
							}
						}
						JOINT Hat
						{
							OFFSET 16.728800 15.048294 -15.439601
							CHANNELS 3 Xrotation Yrotation Zrotation
							End Site
							{
								OFFSET 0.000000 32.263779 0.000000
							}
						}
					}
				}
				JOINT LeftShoulder
				{
					OFFSET 6.197800 13.665199 -4.064700
					CHANNELS 3 Xrotation Yrotation Zrotation
					JOINT LeftArm
					{
						OFFSET 7.778100 -0.187103 -1.709300
						CHANNELS 3 Xrotation Yrotation Zrotation
						JOINT LeftForeArm
						{
							OFFSET 22.049376 0.000000 0.000000
							CHANNELS 3 Xrotation Yrotation Zrotation
							JOINT LeftHand
							{
								OFFSET 23.009392 0.000000 0.000000
								CHANNELS 3 Xrotation Yrotation Zrotation
								JOINT LeftHandThumb1
								{
									OFFSET 3.507191 -2.063065 3.133727
									CHANNELS 3 Xrotation Yrotation Zrotation
									JOINT LeftHandThumb2
									{
										OFFSET 3.101337 -1.790558 1.790558
										CHANNELS 3 Xrotation Yrotation Zrotation
										JOINT LeftHandThumb3
										{
											OFFSET 3.058640 -1.765907 1.765906
											CHANNELS 3 Xrotation Yrotation Zrotation
											End Site
											{
												OFFSET -0.415260 3.926476 -0.049563
											}
										}
									}
								}
								JOINT LeftHandIndex1
								{
									OFFSET 11.334419 -0.901459 3.706815
									CHANNELS 3 Xrotation Yrotation Zrotation
									JOINT LeftHandIndex2
									{
										OFFSET 3.283112 0.000000 0.000000
										CHANNELS 3 Xrotation Yrotation Zrotation
										JOINT LeftHandIndex3
										{
											OFFSET 3.323853 0.000000 0.000000
											CHANNELS 3 Xrotation Yrotation Zrotation
											End Site
											{
												OFFSET -1.135597 3.097809 0.402452
											}
										}
									}
								}
								JOINT LeftHandMiddle1
								{
									OFFSET 11.335861 0.000000 0.000000
									CHANNELS 3 Xrotation Yrotation Zrotation
									JOINT LeftHandMiddle2
									{
										OFFSET 3.410492 0.000000 0.000000
										CHANNELS 3 Xrotation Yrotation Zrotation
										JOINT LeftHandMiddle3
										{
											OFFSET 3.312172 0.000000 0.000000
											CHANNELS 3 Xrotation Yrotation Zrotation
											End Site
											{
												OFFSET -1.150200 3.080154 0.400270
											}
										}
									}
								}
								JOINT LeftHandRing1
								{
									OFFSET 11.514786 -0.013176 -3.003090
									CHANNELS 3 Xrotation Yrotation Zrotation
									JOINT LeftHandRing2
									{
										OFFSET 3.053307 0.000000 0.000000
										CHANNELS 3 Xrotation Yrotation Zrotation
										JOINT LeftHandRing3
										{
											OFFSET 3.295807 0.000000 0.000000
											CHANNELS 3 Xrotation Yrotation Zrotation
											End Site
											{
												OFFSET -1.281006 3.013344 0.375733
											}
										}
									}
								}
								JOINT LeftHandPinky1
								{
									OFFSET 10.518692 -0.960396 -5.730441
									CHANNELS 3 Xrotation Yrotation Zrotation
									JOINT LeftHandPinky2
									{
										OFFSET 2.861649 0.000000 0.000000
										CHANNELS 3 Xrotation Yrotation Zrotation
										JOINT LeftHandPinky3
										{
											OFFSET 2.863380 0.000000 0.000000
											CHANNELS 3 Xrotation Yrotation Zrotation
											End Site
											{
												OFFSET -0.843597 2.711159 0.369971
											}
										}
									}
								}
							}
							JOINT LSleeve
							{
								OFFSET 6.676277 -0.344902 -1.011730
								CHANNELS 3 Xrotation Yrotation Zrotation
								End Site
								{
									OFFSET 0.000000 14.885353 0.000000
								}
							}
						}
					}
				}
				JOINT RightShoulder
				{
					OFFSET -6.197800 13.665199 -4.064700
					CHANNELS 3 Xrotation Yrotation Zrotation
					JOINT RightArm
					{
						OFFSET -7.778100 -0.187103 -1.709300
						CHANNELS 3 Xrotation Yrotation Zrotation
						JOINT RightForeArm
						{
							OFFSET -22.049376 0.000000 0.000000
							CHANNELS 3 Xrotation Yrotation Zrotation
							JOINT RightHand
							{
								OFFSET -23.009392 0.000000 0.000000
								CHANNELS 3 Xrotation Yrotation Zrotation
								JOINT RightHandThumb1
								{
									OFFSET -3.507191 -2.063065 3.133727
									CHANNELS 3 Xrotation Yrotation Zrotation
									JOINT RightHandThumb2
									{
										OFFSET -3.101337 -1.790558 1.790558
										CHANNELS 3 Xrotation Yrotation Zrotation
										JOINT RightHandThumb3
										{
											OFFSET -3.058640 -1.765907 1.765906
											CHANNELS 3 Xrotation Yrotation Zrotation
											End Site
											{
												OFFSET 0.415260 3.926476 -0.049563
											}
										}
									}
								}
								JOINT RightHandIndex1
								{
									OFFSET -11.334419 -0.901459 3.706815
									CHANNELS 3 Xrotation Yrotation Zrotation
									JOINT RightHandIndex2
									{
										OFFSET -3.283112 0.000000 0.000000
										CHANNELS 3 Xrotation Yrotation Zrotation
										JOINT RightHandIndex3
										{
											OFFSET -3.323853 0.000000 0.000000
											CHANNELS 3 Xrotation Yrotation Zrotation
											End Site
											{
												OFFSET 1.135597 3.097809 0.402452
											}
										}
									}
								}
								JOINT RightHandMiddle1
								{
									OFFSET -11.335861 0.000000 0.000000
									CHANNELS 3 Xrotation Yrotation Zrotation
									JOINT RightHandMiddle2
									{
										OFFSET -3.410492 0.000000 0.000000
										CHANNELS 3 Xrotation Yrotation Zrotation
										JOINT RightHandMiddle3
										{
											OFFSET -3.312172 0.000000 0.000000
											CHANNELS 3 Xrotation Yrotation Zrotation
											End Site
											{
												OFFSET 1.150200 3.080154 0.400270
											}
										}
									}
								}
								JOINT RightHandRing1
								{
									OFFSET -11.514786 -0.013176 -3.003090
									CHANNELS 3 Xrotation Yrotation Zrotation
									JOINT RightHandRing2
									{
										OFFSET -3.053307 0.000000 0.000000
										CHANNELS 3 Xrotation Yrotation Zrotation
										JOINT RightHandRing3
										{
											OFFSET -3.295807 0.000000 0.000000
											CHANNELS 3 Xrotation Yrotation Zrotation
											End Site
											{
												OFFSET 1.281006 3.013344 0.375733
											}
										}
									}
								}
								JOINT RightHandPinky1
								{
									OFFSET -10.518692 -0.960396 -5.730441
									CHANNELS 3 Xrotation Yrotation Zrotation
									JOINT RightHandPinky2
									{
										OFFSET -2.861649 0.000000 0.000000
										CHANNELS 3 Xrotation Yrotation Zrotation
										JOINT RightHandPinky3
										{
											OFFSET -2.863380 0.000000 0.000000
											CHANNELS 3 Xrotation Yrotation Zrotation
											End Site
											{
												OFFSET 0.843597 2.711159 0.369971
											}
										}
									}
								}
							}
							JOINT RSleeve
							{
								OFFSET -6.676277 -0.344902 -1.011730
								CHANNELS 3 Xrotation Yrotation Zrotation
								End Site
								{
									OFFSET 0.000000 14.885353 0.000000
								}
							}
						}
					}
				}
				JOINT Backpack
				{
					OFFSET 0.000000 -2.471497 36.677502
					CHANNELS 3 Xrotation Yrotation Zrotation
					End Site
					{
						OFFSET 0.000000 20.427315 0.000000
					}
				}
				JOINT Hood
				{
					OFFSET 0.000000 18.754097 -10.431000
					CHANNELS 3 Xrotation Yrotation Zrotation
					JOINT Hood1
					{
						OFFSET 0.000000 -5.011002 -7.685901
						CHANNELS 3 Xrotation Yrotation Zrotation
						End Site
						{
							OFFSET 0.000000 9.175140 0.000000
						}
					}
				}
				JOINT LHoodieString
				{
					OFFSET 5.250500 16.397697 3.089900
					CHANNELS 3 Xrotation Yrotation Zrotation
					JOINT LHoodieString1
					{
						OFFSET 0.257700 -6.364304 3.694600
						CHANNELS 3 Xrotation Yrotation Zrotation
						JOINT LHoodieString2
						{
							OFFSET 0.000000 -9.643799 2.679100
							CHANNELS 3 Xrotation Yrotation Zrotation
							End Site
							{
								OFFSET 0.000000 10.009018 0.000000
							}
						}
					}
				}
				JOINT RHoodieString
				{
					OFFSET -5.250500 16.397697 3.089900
					CHANNELS 3 Xrotation Yrotation Zrotation
					JOINT RHoodieString1
					{
						OFFSET -0.257700 -6.364304 3.694600
						CHANNELS 3 Xrotation Yrotation Zrotation
						JOINT RHoodieString2
						{
							OFFSET 0.000000 -9.643799 2.679100
							CHANNELS 3 Xrotation Yrotation Zrotation
							End Site
							{
								OFFSET 0.000000 10.009018 0.000000
							}
						}
					}
				}
			}
			JOINT LBackpack_Strap
			{
				OFFSET 15.223200 -7.719803 -6.610900
				CHANNELS 3 Xrotation Yrotation Zrotation
				End Site
				{
					OFFSET 0.000000 16.040596 0.000000
				}
			}
			JOINT RBackpack_Strap
			{
				OFFSET -15.223000 -7.719803 -6.610900
				CHANNELS 3 Xrotation Yrotation Zrotation
				End Site
				{
					OFFSET 0.000000 16.040596 0.000000
				}
			}
		}
	}
	JOINT BoyFacialAnim_Joint
	{
		OFFSET 1.000000 -82.208099 -1.550900
		CHANNELS 3 Xrotation Yrotation Zrotation
		End Site
		{
			OFFSET 0.000000 30.012791 0.000000
		}
	}
}
MOTION
Frames: 4
Frame Time: 0.016667
-0.214579 81.351341 -0.854869 -0.283492 0.016749 -2.700580 -0.000000 -0.000000 0.000000 -18.906741 11.844789 12.937742 21.997058 11.759083 0.951126 -2.137667 2.706167 -7.372025 -0.000000 -0.000000 -0.000000 -0.000000 -0.000000 0.000000 -0.000000 0.000001 -0.000000 -5.346215 -4.301303 2.717656 17.187158 -2.861522 3.762222 -11.403291 0.030941 -3.555732 0.000000 -0.000001 -0.000000 0.000000 -0.000001 -0.000000 -0.000000 -0.000001 0.000000 0.566427 -1.407840 0.698970 0.884704 -0.154383 2.637805 0.868037 0.313564 2.550322 1.242741 -0.362780 0.178331 1.579608 0.543349 -5.747759 -0.000000 0.000000 0.000000 -0.000000 0.000000 0.000000 -0.000000 0.000000 0.000000 0.000018 -0.000019 -0.312853 3.284670 -25.851914 -73.291577 2.210821 -20.459229 0.701232 -31.889801 -2.761250 2.775349 15.772756 2.736694 17.226142 -2.095471 31.047786 -7.361426 0.000000 -0.000001 0.000000 2.369901 3.655775 -8.470941 -2.148819 2.464587 -18.676483 0.000002 -0.000003 -0.000002 -1.977826 5.701679 -13.647585 0.262680 5.095095 -26.987858 -0.000000 0.000000 0.000002 -3.264365 8.554509 -11.754363 4.032596 4.051327 -33.265224 -0.000000 -0.000001 -0.000006 -6.476542 11.333643 -23.247071 10.714838 2.545236 -34.824706 -0.000000 0.000002 -0.000002 0.000002 0.000001 -0.000001 0.000036 -0.000016 0.312819 5.327961 -3.221397 75.188771 -0.286934 18.990004 0.139585 -7.879836 -10.226552 5.197511 15.779552 -2.730611 -17.214039 -2.090666 -31.045915 7.368366 -0.000001 0.000003 -0.000001 2.372144 -3.655213 8.489155 -2.148903 -2.464953 18.674618 -0.000000 -0.000001 0.000003 -1.976890 -5.701814 13.665514 0.262186 -5.094031 26.988710 -0.000001 -0.000002 0.000005 -3.260090 -8.214676 11.646174 4.031936 -4.048822 33.264777 -0.000000 -0.000000 0.000000 -6.475827 -11.337702 23.265622 10.714920 -2.543898 34.823740 -0.000001 -0.000001 0.000002 0.000000 -0.000002 -0.000001 -0.000000 0.000000 0.000000 -0.000000 0.000000 0.000000 -0.000000 0.000000 0.000000 -0.000000 0.000000 0.000000 -0.000000 0.000000 0.000000 -0.000000 0.000000 0.000000 -0.000000 0.000000 0.000000 -0.000000 0.000000 0.000000 -0.000000 0.000000 0.000000 0.000000 -0.000000 0.000000 0.000000 -0.000000 0.000000 -0.000000 -0.000000 0.000000 
-0.195773 81.356796 -1.010295 -0.835756 -1.517588 -2.811513 -0.000000 -0.000000 -0.000000 -18.465171 13.050961 13.477214 22.098061 13.337907 1.116396 -2.275395 1.393631 -7.663625 0.000000 -0.000000 0.000000 0.000000 -0.000000 0.000000 0.000001 -0.000002 -0.000000 -6.117588 -4.221112 2.586213 18.910139 -2.213780 3.763924 -10.932173 1.432243 -3.272416 -0.000000 -0.000000 0.000000 -0.000000 -0.000000 0.000000 -0.000001 -0.000000 -0.000000 0.971406 -1.435456 0.718454 0.988844 -0.196636 2.609326 0.973522 0.242327 2.527079 0.800252 -0.229904 0.204902 1.905006 1.915863 -5.833862 0.000000 -0.000000 -0.000000 0.000000 -0.000000 -0.000000 0.000000 -0.000000 -0.000000 0.977385 0.015267 -0.358209 4.946909 -23.826283 -70.973206 1.945034 -20.731309 0.649406 -36.056910 -1.976716 -1.857854 15.407469 1.746479 17.954481 -2.095494 31.047786 -7.361450 -0.000000 0.000000 -0.000000 1.840530 3.540814 -7.141735 -2.148891 2.464598 -18.676584 -0.000002 0.000001 -0.000002 -2.530936 5.645463 -12.530533 0.262686 5.095127 -26.987858 -0.000000 -0.000000 -0.000002 -4.418411 8.570481 -10.380001 4.032620 4.051347 -33.265221 -0.000000 -0.000001 -0.000000 -9.388714 12.326882 -21.725739 10.714857 2.545271 -34.824652 -0.000001 -0.000003 -0.000001 -0.000002 0.000001 0.000001 0.066990 0.243802 0.207524 5.191605 -0.509940 74.572852 -0.334881 18.540951 0.163080 -8.606972 -11.105650 5.741628 15.705836 -2.715114 -17.123158 -2.084073 -31.018758 7.320466 0.000001 0.000001 0.000001 2.384403 -3.660983 8.652044 -2.108223 -2.555860 19.242146 -0.000001 0.000000 0.000000 -1.938401 -5.830317 14.312374 0.313802 -5.184771 27.594999 -0.000001 0.000002 -0.000005 -3.089741 -8.298433 13.039114 4.090659 -4.145258 34.052960 0.000001 0.000000 0.000000 -6.399134 -12.088552 25.656996 10.741962 -2.614792 35.856881 -0.000000 0.000001 0.000000 0.000000 -0.000001 -0.000001 -0.000000 0.000000 -0.000000 -0.000000 0.000000 -0.000000 -0.000000 0.000000 -0.000000 -0.000000 0.000000 -0.000000 -0.000000 0.000000 0.000000 -0.000000 0.000000 0.000000 -0.000000 0.000000 -0.000000 -0.000000 0.000000 0.000000 -0.000000 0.000000 0.000000 0.000000 -0.000000 0.000000 0.000000 -0.000000 0.000000 -0.000000 -0.000000 -0.000000 
-0.128855 81.348953 -1.364139 -1.532213 -3.426738 -3.117487 0.000000 0.000000 0.000000 -18.619190 16.058688 14.794320 22.442477 13.318891 1.148332 -2.517289 0.066722 -7.544028 -0.000000 0.000000 -0.000000 -0.000000 0.000000 -0.000000 -0.000000 0.000001 -0.000001 -7.999467 -4.207843 2.327641 22.436502 -0.962158 3.957628 -10.101980 2.492184 -2.770152 -0.000000 -0.000000 -0.000000 -0.000000 -0.000000 -0.000000 -0.000000 0.000001 0.000000 2.039751 -1.518525 0.738755 1.261821 -0.310410 2.528742 1.249909 0.054709 2.460124 0.302906 0.013835 0.261823 1.321121 3.847865 -5.697075 0.000000 -0.000000 0.000000 0.000000 -0.000000 0.000000 0.000000 -0.000000 0.000000 1.986223 0.122393 -0.120702 8.094368 -24.899067 -68.198524 1.185701 -21.611466 0.480227 -46.872788 -1.105432 -4.618146 14.460936 -0.788073 19.799998 -2.095487 31.047748 -7.361387 0.000000 -0.000001 0.000003 0.457203 3.136090 -3.650732 -2.148840 2.464598 -18.676532 -0.000000 -0.000001 -0.000002 -3.994998 5.400552 -9.596949 0.262671 5.095089 -26.987811 -0.000000 0.000000 0.000002 -7.324050 8.382285 -6.964741 4.032598 4.051329 -33.265255 -0.000001 -0.000001 0.000001 -15.986882 14.066143 -18.223906 10.714843 2.545250 -34.824693 -0.000001 0.000002 0.000002 0.000001 0.000001 -0.000001 0.253463 0.912355 -0.080289 3.636566 1.596725 74.135235 -0.350373 17.651425 0.182487 -7.428757 -12.080559 7.196951 15.498695 -2.672590 -16.866939 -2.065250 -30.942383 7.184835 0.000000 0.000001 0.000000 2.425219 -3.676037 9.110995 -1.989619 -2.809137 20.839831 -0.000000 0.000001 0.000000 -1.823646 -6.185066 16.114517 0.463920 -5.436907 29.301757 -0.000002 0.000001 -0.000003 -2.610774 -8.509705 16.860706 4.262490 -4.409931 36.248176 -0.000001 -0.000000 0.000002 -6.021992 -13.997720 32.140848 10.830955 -2.809680 38.689661 0.000001 -0.000001 0.000002 0.000000 0.000000 -0.000001 -0.000000 -0.000001 0.000000 -0.000000 -0.000001 0.000000 -0.000000 -0.000001 0.000000 -0.000000 -0.000001 0.000000 -0.000000 -0.000001 0.000000 -0.000000 -0.000000 0.000000 -0.000000 -0.000001 0.000000 -0.000000 -0.000001 0.000000 -0.000000 -0.000000 0.000000 -0.000000 0.000000 -0.000000 -0.000000 0.000000 -0.000000 0.000000 0.000000 0.000000 
-0.020401 81.320221 -1.842079 -2.259010 -6.097800 -3.568296 0.000000 0.000000 0.000000 -19.311829 20.250384 16.774268 23.027204 11.355815 1.018183 -2.874396 0.100199 -7.112015 0.000000 -0.000000 -0.000000 0.000000 -0.000000 -0.000000 -0.000000 0.000001 -0.000000 -10.163187 -4.160191 1.802945 26.158188 0.920493 4.221344 -10.099248 3.504673 -1.497504 -0.000000 0.000000 0.000000 -0.000000 0.000000 0.000000 -0.000000 -0.000001 0.000000 3.552355 -1.655545 0.746387 1.649032 -0.475937 2.403264 1.641465 -0.210254 2.353476 -0.093890 0.283677 0.336394 0.006973 6.702319 -5.432573 0.000001 0.000000 -0.000000 0.000001 0.000000 -0.000000 0.000001 0.000000 -0.000000 3.031712 0.333335 0.350524 12.040970 -27.172067 -65.359685 -0.019224 -23.409177 0.139615 -61.652798 0.361614 -5.512464 13.147958 -4.206712 22.246768 -2.095472 31.047786 -7.361480 0.000003 -0.000001 0.000001 -1.447963 2.315616 1.244515 -2.148829 2.464608 -18.676509 -0.000004 -0.000003 -0.000002 -6.062585 4.814474 -5.487608 0.262673 5.095138 -26.987834 -0.000001 -0.000003 0.000003 -11.103919 7.652471 -2.608538 4.032586 4.051324 -33.265238 0.000000 -0.000001 -0.000000 -22.798922 15.170122 -14.593068 10.714850 2.545253 -34.824659 0.000000 0.000000 -0.000002 -0.000000 0.000001 -0.000001 0.541580 1.910653 -0.510205 1.015075 3.562545 73.753674 -2.144229 16.565215 0.812405 -3.019899 -13.043815 9.267856 15.179370 -2.609895 -16.470069 -2.035323 -30.824121 6.974203 -0.000001 -0.000001 0.000000 2.488010 -3.698795 9.820456 -1.794571 -3.192412 23.310888 -0.000001 0.000000 0.000002 -1.627345 -6.716568 18.865563 0.709963 -5.816759 31.942350 -0.000000 0.000001 -0.000002 -1.876404 -8.740766 22.578575 4.547644 -4.801541 39.597014 -0.000001 -0.000001 -0.000001 -5.077271 -16.447142 41.729037 11.004884 -3.099520 42.922722 0.000000 0.000001 -0.000001 -0.000000 -0.000002 0.000002 -0.000000 -0.000001 0.000000 -0.000000 -0.000001 0.000000 -0.000000 -0.000001 0.000000 -0.000000 -0.000001 0.000000 -0.000000 -0.000001 0.000000 -0.000000 0.000000 -0.000000 -0.000000 -0.000001 0.000000 -0.000000 -0.000001 0.000000 -0.000000 0.000000 -0.000000 -0.000000 -0.000001 0.000000 -0.000000 -0.000001 0.000000 0.000000 0.000000 0.000000 
